<svg xmlns="http://www.w3.org/2000/svg" viewBox="0 0 240 240" role="img" aria-labelledby="title desc">
  <title id="title">Saude Mental</title>
  <desc id="desc">Ilustracao de cabeca com coracao e folhas</desc>
  <defs>
    <linearGradient id="bg" x1="0" y1="0" x2="1" y2="1">
      <stop offset="0%" stop-color="#dbeafe" />
      <stop offset="100%" stop-color="#bfdbfe" />
    </linearGradient>
  </defs>
  <rect x="10" y="10" width="220" height="220" rx="30" fill="url(#bg)" />
  <circle cx="120" cy="92" r="42" fill="#93c5fd" />
  <path d="M76 175c0-25 20-45 44-45h0c24 0 44 20 44 45v10H76z" fill="#60a5fa" />
  <path d="M120 98c-8-12-24-5-24 8 0 10 9 17 24 29 15-12 24-19 24-29 0-13-16-20-24-8z" fill="#ef4444" />
  <path d="M56 95c-10-2-16-9-19-18 10-2 20 1 27 10-1 3-4 6-8 8z" fill="#22c55e" />
  <path d="M184 95c10-2 16-9 19-18-10-2-20 1-27 10 1 3 4 6 8 8z" fill="#22c55e" />
</svg>
